<?xml version="1.0" encoding="UTF-8" standalone="no"?>
<!-- Created with Inkscape (http://www.inkscape.org/) -->

<svg
   width="313.33463mm"
   height="31.927799mm"
   viewBox="0 0 313.33463 31.927799"
   version="1.1"
   id="svg1"
   inkscape:version="1.3.2 (091e20ef0f, 2023-11-25, custom)"
   sodipodi:docname="logo.svg"
   xmlns:inkscape="http://www.inkscape.org/namespaces/inkscape"
   xmlns:sodipodi="http://sodipodi.sourceforge.net/DTD/sodipodi-0.dtd"
   xmlns="http://www.w3.org/2000/svg"
   xmlns:svg="http://www.w3.org/2000/svg">
  <sodipodi:namedview
     id="namedview1"
     pagecolor="#ffffff"
     bordercolor="#000000"
     borderopacity="0.25"
     inkscape:showpageshadow="2"
     inkscape:pageopacity="0.0"
     inkscape:pagecheckerboard="0"
     inkscape:deskcolor="#d1d1d1"
     inkscape:document-units="mm"
     inkscape:zoom="0.49916539"
     inkscape:cx="583.97478"
     inkscape:cy="465.77748"
     inkscape:window-width="1920"
     inkscape:window-height="1054"
     inkscape:window-x="0"
     inkscape:window-y="0"
     inkscape:window-maximized="1"
     inkscape:current-layer="layer1" />
  <defs
     id="defs1" />
  <g
     inkscape:label="Layer 1"
     inkscape:groupmode="layer"
     id="layer1"
     transform="translate(28.853303,-80.620575)">
    <path
       style="font-size:38.1px;font-family:Canterbury;-inkscape-font-specification:Canterbury;letter-spacing:0px;fill:#2a2a2a;stroke-width:1.32292;stroke-linecap:round;stroke-linejoin:round;stroke-opacity:0.964706"
       d="M -10.908204,103.78537 V 85.992674 q 0.2286,0 0.7239,0.0381 0.4952999,0.0381 0.7238999,0.0381 2.5526999,0 4.2671999,-1.3716 1.7525999,-1.371599 1.9811999,-3.886199 l -0.6096,-0.1905 q -1.1810999,2.0955 -3.9623998,2.0955 -1.9430999,0 -5.7149999,-0.6858 -1.905,-0.381 -3.3147,-0.5334 -1.4097,-0.1905 -2.4003,-0.1905 -3.81,0 -6.286499,2.0574 -2.4384,2.019299 -3.3528,5.791199 l 0.6096,0.2667 q 2.1336,-4.8768 7.010399,-4.8768 h 0.4191 q 0.1905,0.0381 0.4191,0.0381 0.1905,0.0381 0.381,0.0762 0.2286,0 0.4191,0 -7.048499,4.9149 -7.048499,11.5062 0,4.800596 3.352799,8.000996 3.3909,3.1623 8.1534,3.1623 4.191,0 7.5818999,-2.5146 3.3527998,-2.5527 4.3433998,-6.629396 l -0.6096,-0.1143 q -2.5907999,4.648196 -7.0865997,5.714996 z m -0.8382,-17.945096 v 18.135596 q -0.1143,0.0381 -0.2286,0.0381 -0.1143,0 -0.1905,0.0381 -0.1905,0.0381 -0.4191,0.0762 -0.2286,0 -0.4572,0 h -0.4572 q -2.8575,0 -5.4483,-1.6764 1.2954,-1.0668 1.9431,-1.5621 0.6477,-0.5334 0.6858,-0.5715 2.0574,-1.866896 2.0574,-5.372096 v -9.5631 q 0.2286,0 0.5334,0.0762 0.3429,0.0381 0.7239,0.1143 0.381,0.0762 0.6858,0.1524 0.3429,0.0762 0.5715,0.1143 z m -6.3246,-1.1811 v 12.9159 q 0,3.047996 -1.6764,4.267196 -3.5052,-3.162296 -3.5052,-7.619996 0,-2.9718 1.2954,-5.5245 1.4097,-2.8194 3.8862,-4.0386 z m 35.280615,17.602196 -0.6858,-0.4953 q -1.2573,1.7526 -2.5908,1.7526 -0.5334,0 -1.3335,-0.0381 -0.8001,-0.0381 -1.905,-0.1143 -1.0667997,-0.0762 -1.8668997,-0.1143 -0.8000999,-0.0762 -1.3334999,-0.0762 4.4957996,-4.495796 8.8010996,-4.495796 1.6764,0 3.81,0.8001 0,1.828796 -1.143,3.695696 -0.3048,0.5334 -0.9144,1.3335 -0.6096,0.762 -1.4859,1.8288 -1.7145,2.0574 -1.7145,3.5814 0,0.8382 0.6096,1.4478 0.6096,0.6477 1.4478,0.6477 h 0.1524 q 0.1143,0 0.1905,-0.0381 1.2573,-0.1524 1.2573,-1.2192 0,-0.9906 -0.9906,-0.9906 -0.0381,0.0381 -0.0762,0.0381 h -0.1143 q -0.4191,0.2286 -0.8382,0.2286 -0.5334,-0.0762 -0.5334,-0.6477 0,-0.2667 0.2667,-0.6477 0.2667,-0.381 0.6477,-0.762 0.6096,-0.4953 0.762,-0.6477 3.429,-2.7432 4.0386,-3.429 1.4097,-1.4478 1.7907,-3.429 0.3048,-1.409696 0.3048,-3.924296 0,-3.2004 -0.5334,-4.9911 -0.7239,-2.2479 -2.8575,-4.0386 -0.5334,-0.4191 -0.9525,-0.7239 -0.4191,-0.3429 -0.6858,-0.5334 l -6.3246,5.2959 v -4.8387 q 0,-0.2667 0.0381,-0.4572 0.1143,-1.2192 0.4953,-1.7145 0.7239,-0.876299 1.9431,-1.562099 0.2286,-0.1143 0.8001,-0.3429 0.5715,-0.2667 1.524,-0.6858 l -0.2667,-0.762 q -2.6289,0.6858 -5.1435,2.1336 -1.9811997,1.181099 -2.5526997,2.971799 -0.381,1.1049 -0.381,4.0005 v 6.7818 q 0,2.2479 -0.8000999,3.695696 -0.762,1.4097 -2.6669999,2.667 -0.1905,0.1524 -0.381,0.2667 -0.1524,0.0762 -0.2667,0.1524 0.4572,-0.9525 0.8001,-1.6383 0.3429,-0.6858 0.5714999,-1.143 0.4572,-1.181096 0.4572,-3.543296 v -9.0297 q 0,-2.1717 0.8763,-3.5052 0.8001,-1.142999 2.8193996,-2.247899 1.1811,-0.6096 1.4478,-0.8001 l -0.3048,-0.762 q -2.5526997,1.2192 -4.3433996,1.2192 -0.9144,0 -2.5526999,-0.4572 -1.7144999,-0.4572 -2.5526999,-0.4191 -1.90499991,0.0762 -3.2003999,1.524 -1.1429999,1.257299 -1.5620999,3.276599 l 0.6858,0.2286 q 0.6857999,-2.286 2.62889987,-2.286 0.30479999,0 0.72389993,0.0762 0.4572,0.0762 1.0668,0.2286 1.2953999,0.3048 1.8668999,0.3048 1.0287,0 2.2478999,-0.3429 -1.9430999,1.4097 -2.7812999,3.3528 -0.7238999,1.7145 -0.7619999,4.3434 -2.05739994,0 -3.27659989,0.6477 -1.33349991,0.762 -1.94309991,2.5908 l 0.5715,0.2667 q 0.95249992,-1.3716 2.51459986,-1.3716 1.33349994,0 2.09549994,1.2573 0.6096,0.9906 0.6096,2.5527 -3.00989993,0.0762 -3.39089991,3.428996 l 0.57149997,0.1524 q 0.68579994,-1.4097 1.56209994,-1.4097 1.2573,0 1.2573,1.524 0,1.7145 -2.3622,3.8862 -0.60959993,0.5715 -1.02869991,0.9906 -0.41909999,0.381 -0.60959998,0.6477 -0.76200001,0.9906 -0.76200001,2.1336 v 0.2667 q 0.1524,1.3716 1.25729999,1.3716 0.91439996,0 0.91439996,-1.1049 -0.0762,-0.3048 -0.11429999,-0.4191 l -0.19049999,-0.3429 q -0.0381,-0.0381 -0.0381,-0.0762 0,0 -0.0381,-0.0381 -0.26669999,-0.4191 -0.26669999,-0.8763 0.0762,-1.0287 1.02869992,-1.524 2.0193,-1.1049 4.8005998,-1.1049 3.3146999,0 7.3913996,1.8288 z m -4.8006,-3.619496 v -4.1529 q 2.0574,0.762 3.8481,0.762 2.2098,0 3.8481,-0.762 0,0.0762 0,0.2286 0,0.1143 0.0381,0.3048 v 0.4953 2.0955 0.5334 q -0.0381,0.1905 -0.0381,0.3429 0,0.1143 0,0.1905 -2.1336,-0.7239 -3.7719,-0.7239 -1.4097,0 -3.5814,0.6477 -0.1143,0 -0.1524,0.0381 z m 0,-5.1054 v -0.9525 l 4.3815,-3.5814 q 3.1242,2.0193 3.429,4.4577 -1.6383,0.9525 -3.8862,0.9525 -2.0955,0 -3.9243,-0.8763 z m 25.679398,10.248896 -0.381,-0.5334 -2.705099,1.905 q -1.2573,-0.6858 -3.3147,-1.7145 v -3.505196 l 6.896099,-5.715 -4.648199,-5.9436 q -1.4478,0.8763 -3.2766,1.8288 -1.8288,0.9144 -4.1148,1.905 l 0.1524,0.4191 q 1.2573,0 1.2573,1.4478 v 7.848596 0.4191 q -0.0762,2.0193 -1.2573,2.5908 v 0.4191 q 2.5908,0.4572 5.8674,2.3622 z M 31.68761,98.679974 v -8.1534 l 3.8862,4.9911 z m 46.78685,4.991096 v 0.0381 q 0,-2.4384 -0.0381,-4.229096 -0.0381,-1.8288 -0.1143,-3.048 -0.3429,-5.4483 -1.524,-8.1915 -1.3335,-3.1242 -3.9624,-4.2291 -2.0574,-0.876299 -5.8674,-0.876299 -0.8763,0 -2.133599,0.0381 -1.2573,0.0381 -2.9718,0.1143 -3.3909,0.1143 -5.0673,0.1143 -2.7051,0 -3.429,-1.7526 l -0.4953,0.0381 q 0,3.390899 1.9431,4.457699 1.4097,0.762 5.0292,0.762 0.3048,0 0.8382,-0.0381 0.5715,-0.0381 0.8001,-0.0381 0.2667,-0.0381 0.6477,-0.0381 0.4191,0 0.9525,0 -0.3429,0.1905 -0.6477,0.381 -0.3048,0.1905 -0.5715,0.381 -2.6289,1.7907 -3.1623,3.6957 -0.6858,2.4765 -0.6858,4.9149 -0.8001,-0.381 -1.7145,-0.381 -2.3622,0 -3.8481,2.7432 l 0.5334,0.4191 q 0.9144,-0.9144 1.8288,-0.9144 1.0668,0 1.7907,0.8382 0.762,0.8382 0.8763,1.943096 v 0.3048 q 0,1.6002 -1.0287,2.7813 -1.6002,1.8288 -3.4671,2.8956 l 0.4953,0.6477 q 1.3335,-0.8382 2.5527,-1.7145 1.2192,-0.8763 2.3241,-1.8288 0.7239,-0.6096 1.2192,-1.143 0.5334,-0.5334 0.8382,-0.9525 1.2573,-1.7526 1.2573,-5.448296 v -4.2672 q 0,-4.572 3.4671,-5.4102 -1.2192,2.1336 -1.2192,5.6769 v 4.9149 q 0,2.7051 -1.2192,4.495796 -1.0668,1.6002 -3.5052,3.1242 -0.3429,0.1905 -0.5715,0.3429 -0.2286,0.1143 -0.3048,0.1524 l -3.7719,2.2479 -0.5715,0.3429 0.4953,0.7239 q 4.5339,-2.4765 9.6774,-2.4765 4.190999,0 8.762999,1.2954 z m -10.8204,-0.8382 v -3.009896 q 1.4478,-0.9525 2.8956,-1.1811 0.1143,-0.0381 0.2667,-0.0381 h 0.2286 q 1.7907,0 3.5814,1.2954 0.1143,1.600196 0.1143,4.267196 -2.8956,-0.8763 -7.0866,-1.3335 z m -0.8382,-16.268696 v 16.306796 q -2.552699,0.0381 -4.457699,0.5334 2.4765,-2.0574 2.4765,-6.667496 v -4.3434 q 0,-3.9243 1.409699,-5.7912 h 0.0762 q 0.0381,0 0.0762,-0.0381 h 0.3048 q 0,0.0381 0.0381,0.0381 0.0381,0 0.0762,-0.0381 z m 0.8382,12.3063 v -4.5339 q 1.6383,1.0668 3.2385,1.0668 1.4478,0 3.429,-1.0668 0.1143,1.1049 0.1905,2.2479 0.0762,1.1049 0.1143,2.2479 -1.7526,-1.0668 -3.6195,-1.0668 -1.3335,0 -3.3528,1.1049 z m 0,-5.6007 v -6.6675 q 3.4671,0.2667 4.8768,1.7526 1.4097,1.4097 1.7145,4.953 -1.6764,1.143 -3.2766,1.143 -1.6764,0 -3.3147,-1.1811 z m 28.117782,11.087096 -0.381,-0.4572 q -0.0762,0.0762 -0.1524,0.0762 l -0.0381,0.0381 -0.0762,0.0762 q -0.6858,0.3048 -0.9144,0.3048 -0.9144,-0.1143 -0.9525,-1.4859 v -0.3048 -7.543796 q 0,-0.5334 0,-0.9906 0,-0.4572 0.0381,-0.8763 0.0381,-1.7907 1.3335,-3.7719 l -0.4953,-0.3048 q -0.8763,0.8382 -1.7145,0.8382 -1.905,0 -4.7625,-1.4859 -0.1524,-0.0762 -0.2286,-0.1143 -0.0762,-0.0381 -0.1524,-0.0762 -1.905,1.6002 -4.6482,1.6002 h -0.4191 q -0.0381,0 -0.0762,-0.0381 h -0.1905 q -0.1143,0 -0.1143,-0.0381 l 3.2766,5.8674 -0.5334,0.6096 q -3.048,3.3909 -3.048,6.515096 0,2.4765 2.9337,4.7244 l 5.0292,-4.0386 q 0.2286,1.9812 1.4097,3.2766 0.2667,0.2667 0.4572,0.4191 0.2286,0.1905 0.381,0.3429 z m -8.3439,-7.315196 2.0574,0.8763 v 4.610096 l -2.4384,2.0193 q -2.3622,-2.1717 -2.3622,-4.1529 0,-1.142996 0.4572,-3.047996 0.2667,-1.143 0.381,-1.143 z m 2.0574,-4.4196 v 4.5339 l -3.6195,-1.5621 -2.8194,-5.1054 z m 6.477031,-1.143 0.4953,0.5715 0.0762,-0.0762 q 0.0381,-0.0381 0.0381,-0.0381 0.0381,0 0.0762,-0.0381 0.5715,-0.4572 0.9525,-0.4572 0.8382,0 0.9144,1.3716 v 0.1143 0.6096 q -0.0381,0.0381 -0.0381,0.1524 v 9.334496 q 0,1.7907 -1.2192,3.5814 -1.2192,1.7907 -1.2192,2.8575 0,1.5621 1.143,2.3622 0.9525,0.7239 2.6289,0.7239 0.914397,0 2.133597,-0.2286 2.5527,-0.4953 2.5527,-1.6383 0,-0.8001 -0.762,-0.8001 -0.6477,0 -1.6002,0.9525 -1.1049,0.9144 -2.400297,0.9144 -1.143,0 -1.9431,-0.6096 -0.8001,-0.5715 -0.8001,-1.6383 0,-1.0287 0.762,-1.7907 0.9906,-0.762 1.7526,-1.2573 0.761997,-0.4953 1.295397,-0.8001 2.2098,-1.3335 3.7338,-2.4003 1.524,-1.0668 2.4003,-1.9431 3.048,-2.971796 3.048,-6.591296 v -0.3429 q 0,-0.1905 -0.0381,-0.3048 -0.2286,-1.905 -0.6858,-3.048 -0.6096,-1.4097 -1.7526,-2.6289 l -5.2197,4.191 q 0,-2.5527 -1.7526,-3.81 -0.3048,-0.1905 -0.4572,-0.3048 -0.152397,-0.1524 -0.228597,-0.1905 z m 6.286497,2.0574 2.5908,-2.0193 q 1.4478,2.0955 1.4478,4.6482 v 0.2286 0.2286 q -0.1524,2.0574 -1.2573,4.038596 -1.0668,1.9431 -2.7813,3.0861 z m 9.48691,10.363196 v 0.4191 q 4.3053,0.762 7.0485,3.2004 2.0193,-1.7907 5.6769,-3.2385 V 93.879374 q 0,-1.4478 -0.1905,-2.3622 -0.1524,-0.9144 -0.8763,-1.7907 -0.3048,-0.3429 -1.4859,-1.4859 l -5.4102,4.5339 v -6.477 q 0,-1.7907 0.3429,-2.705099 0.381,-1.1811 1.7145,-2.0574 l -0.1143,-0.3429 q -2.5527,0.381 -4.3053,2.2479 -1.4097,-1.1049 -2.8194,-1.6764 l -0.2286,0.4953 q 0.1524,0.1524 0.2667,0.2667 0.1524,0.1143 0.2667,0.2286 l 0.4191,0.4191 q 0.7239,1.066799 0.7239,2.819399 v 15.316196 q 0,2.0193 -1.0287,2.5908 z m 4.7625,-10.248896 3.048,-2.5527 q 1.143,0.9906 1.143,3.2766 v 10.134596 l -4.191,-1.7907 z m 9.6393,-2.1717 0.4572,0.5334 1.1049,-0.9144 0.381,0.381 q 0.5334,0.6477 0.5334,2.1717 v 7.696196 q 0,2.286 -1.2954,3.0099 v 0.4572 q 2.3241,0.4572 4.6482,2.7051 l 4.6101,-3.6957 -0.5334,-0.6096 -1.7526,1.3716 -1.8669,-1.3716 V 92.507774 l 1.524,-1.3335 2.2479,2.7813 2.5908,-2.4003 -2.7432,-3.3909 -3.4671,3.1623 q -0.7239,-1.9812 -2.667,-3.0861 z m 25.06979,12.306296 -0.381,-0.5334 -2.7051,1.905 q -1.2573,-0.6858 -3.3147,-1.7145 v -3.505196 l 6.8961,-5.715 -4.6482,-5.9436 q -1.4478,0.8763 -3.2766,1.8288 -1.8288,0.9144 -4.11479,1.905 l 0.1524,0.4191 q 1.25729,0 1.25729,1.4478 v 7.848596 0.4191 q -0.0762,2.0193 -1.25729,2.5908 v 0.4191 q 2.59079,0.4572 5.86739,2.3622 z m -6.4008,-5.105396 v -8.1534 l 3.8862,4.9911 z m 22.66953,5.676896 -0.381,-0.4572 q -0.0762,0.0762 -0.1524,0.0762 l -0.0381,0.0381 -0.0762,0.0762 q -0.6858,0.3048 -0.9144,0.3048 -0.9144,-0.1143 -0.9525,-1.4859 v -0.3048 -7.543796 q 0,-0.5334 0,-0.9906 0,-0.4572 0.0381,-0.8763 0.0381,-1.7907 1.3335,-3.7719 l -0.4953,-0.3048 q -0.8763,0.8382 -1.7145,0.8382 -1.905,0 -4.7625,-1.4859 -0.1524,-0.0762 -0.2286,-0.1143 -0.0762,-0.0381 -0.1524,-0.0762 -1.905,1.6002 -4.6482,1.6002 h -0.4191 q -0.0381,0 -0.0762,-0.0381 h -0.1905 q -0.1143,0 -0.1143,-0.0381 l 3.2766,5.8674 -0.5334,0.6096 q -3.048,3.3909 -3.048,6.515096 0,2.4765 2.9337,4.7244 l 5.0292,-4.0386 q 0.2286,1.9812 1.4097,3.2766 0.2667,0.2667 0.4572,0.4191 0.2286,0.1905 0.381,0.3429 z m -8.3439,-7.315196 2.0574,0.8763 v 4.610096 l -2.4384,2.0193 q -2.3622,-2.1717 -2.3622,-4.1529 0,-1.142996 0.4572,-3.047996 0.2667,-1.143 0.381,-1.143 z m 2.0574,-4.4196 v 4.5339 l -3.6195,-1.5621 -2.8194,-5.1054 z m 22.59335,11.696696 -0.381,-0.5715 -1.0287,0.8382 q -0.5334,-0.6477 -0.6858,-1.2954 -0.3048,-1.3335 -0.5334,-2.3241 -0.1905,-1.028696 -0.3429,-1.714496 -0.2667,-0.8382 -1.0287,-1.7526 -0.4191,-0.4953 -1.4097,-1.524 l -0.0762,-0.0762 q -0.1143,0 -0.1524,-0.1524 l 4.0767,-3.6957 -3.5814,-3.81 -4.8387,4.6863 v -6.9723 q 0,-2.438399 0.9144,-3.352799 0.8001,-0.6096 1.143,-0.9144 l -0.1143,-0.4953 q -2.8956,0.6096 -4.572,2.3622 -1.1049,-1.2192 -2.8956,-1.7907 l -0.2286,0.4953 q 1.1049,0.7239 1.524,1.828799 0.3429,0.8763 0.3429,2.4003 v 15.087596 q 0,1.143 -0.1524,1.5621 -0.2286,0.8001 -1.0668,1.0668 v 0.5715 q 2.7432,0.8001 4.5339,2.7432 l 4.8387,-3.9243 q 0.381,2.4765 1.6764,3.9243 z m -9.9822,-1.0668 v -3.581396 l 1.6002,-1.4097 q 1.9812,1.4097 2.5527,4.419596 l -2.286,1.905 z m 0,-4.571996 v -4.7625 l 2.8194,-2.7051 2.5146,2.7051 z m 40.005,5.105396 V 85.992674 q 0.2286,0 0.7239,0.0381 0.4953,0.0381 0.7239,0.0381 2.5527,0 4.2672,-1.3716 1.7526,-1.371599 1.9812,-3.886199 l -0.6096,-0.1905 q -1.1811,2.0955 -3.9624,2.0955 -1.9431,0 -5.715,-0.6858 -1.905,-0.381 -3.3147,-0.5334 -1.40969,-0.1905 -2.40029,-0.1905 -3.81,0 -6.2865,2.0574 -2.4384,2.019299 -3.3528,5.791199 l 0.6096,0.2667 q 2.1336,-4.8768 7.0104,-4.8768 h 0.4191 q 0.1905,0.0381 0.4191,0.0381 0.1905,0.0381 0.381,0.0762 0.2286,0 0.4191,0 -7.0485,4.9149 -7.0485,11.5062 0,4.800596 3.3528,8.000996 3.3909,3.1623 8.15339,3.1623 4.191,0 7.5819,-2.5146 3.3528,-2.5527 4.3434,-6.629396 l -0.6096,-0.1143 q -2.5908,4.648196 -7.0866,5.714996 z m -0.8382,-17.945096 v 18.135596 q -0.1143,0.0381 -0.2286,0.0381 -0.1143,0 -0.1905,0.0381 -0.1905,0.0381 -0.4191,0.0762 -0.2286,0 -0.4572,0 h -0.4572 q -2.8575,0 -5.44829,-1.6764 1.2954,-1.0668 1.94309,-1.5621 0.6477,-0.5334 0.6858,-0.5715 2.0574,-1.866896 2.0574,-5.372096 v -9.5631 q 0.2286,0 0.5334,0.0762 0.3429,0.0381 0.7239,0.1143 0.381,0.0762 0.6858,0.1524 0.3429,0.0762 0.5715,0.1143 z m -6.32459,-1.1811 v 12.9159 q 0,3.047996 -1.6764,4.267196 -3.5052,-3.162296 -3.5052,-7.619996 0,-2.9718 1.2954,-5.5245 1.4097,-2.8194 3.8862,-4.0386 z m 24.07921,19.773896 -0.4572,-0.6477 -1.143,0.9525 -1.0668,-0.9525 V 92.012474 l 1.2954,-1.1811 -3.1623,-2.5908 -3.1623,2.4765 1.3335,1.143 v 9.753596 q 0,2.0574 -1.2192,2.4765 v 0.381 q 0.8382,0.4953 1.7145,1.2573 0.9144,0.762 1.905,1.7907 z m -4.191,-19.469096 0.9144,0.0762 3.1623,-4.305299 -3.1623,-0.1143 z m 4.76249,6.3627 0.4572,0.7239 q 0.1524,-0.0762 0.2286,-0.1143 0.0762,-0.0762 0.1524,-0.1143 h 0.0381 q 0.381,-0.2667 0.6477,-0.2667 0.7239,0.0381 0.8382,1.2192 v 10.706096 l -1.3335,1.3716 3.3147,2.667 3.0861,-2.5527 -1.3716,-1.3716 V 93.422174 l 2.6289,-2.2098 0.3048,0.3048 q 0.0381,0.0381 0.2667,0.3429 0.9525,1.1811 0.9525,2.4384 v 9.296396 l -1.2192,1.3716 3.2004,2.5527 3.1242,-2.5527 -1.3716,-1.3716 V 93.422174 l 2.7432,-2.3622 1.3716,1.524 v 9.486896 q 0,3.0099 1.0668,4.3053 0.9144,0.762 1.3716,1.143 l 3.6576,-3.0099 -0.4572,-0.5715 q -0.6477,0.5334 -1.0668,0.5334 -0.8001,-0.0381 -0.8001,-1.4478 v -8.801096 q 0,-2.2098 1.3335,-3.5433 l 0.4191,-0.4191 -0.4953,-0.5334 -1.4859,1.4478 -2.667,-2.9337 -5.0673,4.3815 q -0.1905,-2.4765 -2.667,-4.3815 l -5.1435,4.3815 q 0,-1.1811 -0.1905,-2.0193 -0.3048,-1.143 -1.905,-2.3622 z m 37.29993,12.458696 -0.381,-0.5334 -2.7051,1.905 q -1.2573,-0.6858 -3.3147,-1.7145 v -3.505196 l 6.8961,-5.715 -4.6482,-5.9436 q -1.4478,0.8763 -3.2766,1.8288 -1.8288,0.9144 -4.1148,1.905 l 0.1524,0.4191 q 1.2573,0 1.2573,1.4478 v 7.848596 0.4191 q -0.0762,2.0193 -1.2573,2.5908 v 0.4191 q 2.5908,0.4572 5.8674,2.3622 z m -6.4008,-5.105396 v -8.1534 l 3.8862,4.9911 z m 7.54383,8.420096 0.4953,0.4191 q 1.7907,-1.4097 3.81,-1.4097 1.905,0 4.2291,1.4097 2.4384,-2.0955 5.2578,-2.9337 v -7.429496 l -3.8862,-2.2479 3.2004,-4.4196 q 1.4478,-2.0193 1.6383,-3.1623 v -0.3429 q 0,-1.6002 -1.3716,-1.6002 -1.1049,0 -1.1049,1.1049 0,0.6096 0.4191,1.0287 0,0.0381 0.0381,0.0381 0.381,0.381 0.381,0.8763 0,0.6096 -0.6858,0.9525 -0.4953,0.2667 -1.1811,0.2667 -2.2098,0 -4.953,-1.3716 -1.6764,1.6764 -2.1717,2.0574 -1.0287,0.7239 -2.8194,1.2573 v 6.7437 l 3.5433,1.943096 z m 9.9441,-7.924796 v 5.181596 q -1.9431,-1.0668 -3.1623,-1.1049 -0.0762,-0.0381 -0.2286,-0.0381 h -0.2286 -0.4953 q -0.1905,0.0381 -0.3048,0.0381 -0.1143,0 -0.1905,0 -0.1905,0.0381 -0.3429,0.0762 -0.1524,0.0381 -0.3429,0.0762 l -0.9525,0.2667 4.0386,-5.714996 z m -4.9149,-2.8575 v -5.0673 q 1.0287,0.6477 2.4384,1.0287 0.381,0.0762 0.7239,0.1524 0.381,0.0381 0.8001,0.0381 h 0.4191 q 0.6096,0 1.1049,-0.1524 l -3.6195,5.0673 z"
       id="text1"
       aria-label="THe Daybreak Times" />
  </g>
</svg>
